<svg xmlns="http://www.w3.org/2000/svg" viewBox="0 0 1261.1 1506.68"><defs><style>.cls-1{fill:#c69c6d;}</style></defs><title>Asset 9</title><g id="Layer_2" data-name="Layer 2"><g id="Layer_1-2" data-name="Layer 1"><path class="cls-1" d="M1256.1,1496.68H669.57l-3.8-8.06H678a15.14,15.14,0,0,0,15.14-15.13A15.15,15.15,0,0,0,678,1458.36H656.67a26,26,0,1,0-47.06,0H588.29a15.14,15.14,0,0,0-15.13,15.13,15.14,15.14,0,0,0,15.13,15.13h12.22c-1.27,2.69-2.53,5.37-3.79,8.06H40.51a30,30,0,0,1-30-30V1161.82a30,30,0,0,1,30-30H524.4c4.3,3.59,9.81,6.68,16.34,7.22h.11c7,.53,13.82-1.89,20.45-7.23a55.93,55.93,0,0,0,6.71-6.46c.84-.95,1.68-1.95,2.51-3l.45-.55a27.69,27.69,0,0,1,6.44-5.77,19.49,19.49,0,0,1,12.87-3.17,17.66,17.66,0,0,1,10.25,4.94,21.62,21.62,0,0,1,3.28,4,25.35,25.35,0,0,1,1.63,3c.58,1.24,1.19,2.43,1.84,3.58s1.4,2.36,2.15,3.46c5.84,8.56,13.73,13.85,22.42,14.82l.93.08c10.13.77,20.26-4.22,28.86-14.2l.6-.7c.52-.61,1-1.24,1.53-1.89a24.72,24.72,0,0,1,7.5-6.71,18.81,18.81,0,0,1,7.86-2.31,25.58,25.58,0,0,1,8.38.91,41.12,41.12,0,0,1,8.21,3.27,63.87,63.87,0,0,1,10.22,6.73h516.42a38,38,0,0,0,38-38V785.74a38,38,0,0,0-38-38H658.51v-9.09c13.42-.91,23.58-8.54,23.58-18.11a13.52,13.52,0,0,0-.28-2.7c4.51-3.84,7-8.76,7-13.93,0-9.89-8.91-18.18-21.74-20.78C665,672.57,652.6,664.7,637.15,664.7s-28.08,8-30,18.74c-12.17,2.92-20.33,10.94-20.33,20.47,0,5.48,2.77,10.61,7.71,14.52a13.44,13.44,0,0,0-.16,2.11c0,9.38,9.74,16.88,22.76,18.05v9.15H40a30,30,0,0,1-30-30V414.62a30,30,0,0,1,30-30H564.7l14.15-10h0l53.06-33.1a15.93,15.93,0,0,1,16.41-.3L679,358.83H617.33c-7.18,0-13.39,5.88-13.3,13.06a12.29,12.29,0,0,0,.33,2.73h0a12.91,12.91,0,0,0,12.24,10h29.67a3,3,0,0,1,3,2.32,2.9,2.9,0,0,1-2.84,3.48H574.81a5.32,5.32,0,0,0-5.37,5.42,5.19,5.19,0,0,0,2.7,4.58L618,426.79a26,26,0,0,0,26.69-.49l66.78-41.67h511.1a38,38,0,0,0,38-38V5a5,5,0,0,0-10,0V344.62a30,30,0,0,1-30,30H706.52l-13.88,10h0l-53.2,33.19a16,16,0,0,1-16.41.3l-30.79-17.69H646c7.14,0,13.31-5.84,13.27-13a13,13,0,0,0-.33-2.82h0a12.92,12.92,0,0,0-12.57-10H616.63a2.9,2.9,0,0,1-2.59-3.16,3,3,0,0,1,3-2.63h79.34a5.32,5.32,0,0,0,5.37-5.42,5.19,5.19,0,0,0-2.7-4.58l-45.78-26.29a25.94,25.94,0,0,0-26.68.49L560,374.62H38a38,38,0,0,0-38,38V719.74a38,38,0,0,0,38,38H627.34V728.3l-5.41.32c-.39,0-.8,0-1.22,0-9.24,0-16.14-4.28-16.14-8.11a3.67,3.67,0,0,1,.47-1.74l2.38-4.32-4.3-2.46c-3.88-2.22-6.1-5.17-6.1-8.11,0-5.22,6.77-10,15.75-11.25l5.07-.66-.7-5a5.22,5.22,0,0,1,0-.67c0-5.46,8.24-11.52,20-11.52s20.05,6.06,20.05,11.52a4.44,4.44,0,0,1,0,.55l-.66,5.17,5.23.49c9.47.91,16.89,5.9,16.89,11.38,0,2.79-2,5.64-5.61,7.82l-4.25,2.61,2.54,4.26a3.61,3.61,0,0,1,.58,1.94c0,3.83-6.9,8.11-16.13,8.11-.64,0-1.31,0-2-.07l-5.44-.36v29.52h572.05a30,30,0,0,1,30,30v304.08a30,30,0,0,1-30,30h-511c-7.09-5.15-18.7-11.73-30.85-10.89-8.1.55-15.13,4.22-21,10.89-.11.11-.2.22-.3.33-.46.54-.92,1.08-1.36,1.66a43.61,43.61,0,0,1-7.49,7.69l-.42.32c-4.91,3.74-10,5.44-15,4.87a18.82,18.82,0,0,1-10.44-4.87,25,25,0,0,1-2.45-2.48,36.3,36.3,0,0,1-5-7.52c-.21-.42-.42-.84-.62-1.27-.28-.59-.57-1.17-.87-1.73-4.8-9-12.79-14.76-22.17-15.88-10.19-1.17-20.25,3.19-27.83,12.06-.32.36-.63.75-.94,1.14a54.07,54.07,0,0,1-5.14,5.68,38.05,38.05,0,0,1-2.9,2.52c-4.44,3.47-8.81,5.06-13,4.74h0c-5.11-.4-9.52-3.5-12.79-6.72l-.53-.54H38.51a38,38,0,0,0-38,38v308.86a38,38,0,0,0,38,38H604.42l.19-.41q2.25-4.8,4.51-9.59l5.31-11.27,3.77-8H588.29a3.92,3.92,0,0,1-2.75-6.7,3.86,3.86,0,0,1,2.75-1.13H678a3.92,3.92,0,0,1,3.92,3.91,3.93,3.93,0,0,1-3.92,3.92H648.08l3.78,8,5.31,11.27q2.25,4.78,4.51,9.59l.19.41H1256.1a5,5,0,0,0,5-5A5,5,0,0,0,1256.1,1496.68Zm-614.48-37.31-8.48,5.9-8.47-5.9a14.83,14.83,0,1,1,17,0Z"/></g></g></svg>